<?xml version="1.0" encoding="UTF-8" standalone="no"?>
<!-- Created with Inkscape (http://www.inkscape.org/) -->

<svg
   width="64pt"
   height="64pt"
   viewBox="0 0 22.577778 22.577778"
   version="1.1"
   id="svg831"
   inkscape:version="1.1.1 (3bf5ae0d25, 2021-09-20)"
   sodipodi:docname="Export - Unblash - 64px.svg"
   inkscape:export-filename="C:\Users\User\Desktop\CARLOS PROJECT\2. FEBRUARI 1\DONE\25 - Dates.png"
   inkscape:export-xdpi="576"
   inkscape:export-ydpi="576"
   xmlns:inkscape="http://www.inkscape.org/namespaces/inkscape"
   xmlns:sodipodi="http://sodipodi.sourceforge.net/DTD/sodipodi-0.dtd"
   xmlns="http://www.w3.org/2000/svg"
   xmlns:svg="http://www.w3.org/2000/svg"
   xmlns:rdf="http://www.w3.org/1999/02/22-rdf-syntax-ns#"
   xmlns:cc="http://creativecommons.org/ns#"
   xmlns:dc="http://purl.org/dc/elements/1.1/">
  <defs
     id="defs825">
    <pattern
       id="EMFhbasepattern"
       patternUnits="userSpaceOnUse"
       width="6"
       height="6"
       x="0"
       y="0" />
    <pattern
       id="EMFhbasepattern-9"
       patternUnits="userSpaceOnUse"
       width="6"
       height="6"
       x="0"
       y="0" />
    <pattern
       id="EMFhbasepattern-0"
       patternUnits="userSpaceOnUse"
       width="6"
       height="6"
       x="0"
       y="0" />
    <pattern
       id="EMFhbasepattern-7"
       patternUnits="userSpaceOnUse"
       width="6"
       height="6"
       x="0"
       y="0" />
    <pattern
       id="EMFhbasepattern-2"
       patternUnits="userSpaceOnUse"
       width="6"
       height="6"
       x="0"
       y="0" />
    <pattern
       id="EMFhbasepattern-98"
       patternUnits="userSpaceOnUse"
       width="6"
       height="6"
       x="0"
       y="0" />
    <pattern
       id="EMFhbasepattern-6"
       patternUnits="userSpaceOnUse"
       width="6"
       height="6"
       x="0"
       y="0" />
    <pattern
       id="EMFhbasepattern-01"
       patternUnits="userSpaceOnUse"
       width="6"
       height="6"
       x="0"
       y="0" />
    <pattern
       id="EMFhbasepattern-07"
       patternUnits="userSpaceOnUse"
       width="6"
       height="6"
       x="0"
       y="0" />
    <pattern
       id="EMFhbasepattern-8"
       patternUnits="userSpaceOnUse"
       width="6"
       height="6"
       x="0"
       y="0" />
    <pattern
       id="EMFhbasepattern-4"
       patternUnits="userSpaceOnUse"
       width="6"
       height="6"
       x="0"
       y="0" />
    <pattern
       id="EMFhbasepattern-40"
       patternUnits="userSpaceOnUse"
       width="6"
       height="6"
       x="0"
       y="0" />
    <pattern
       id="EMFhbasepattern-08"
       patternUnits="userSpaceOnUse"
       width="6"
       height="6"
       x="0"
       y="0" />
    <pattern
       id="EMFhbasepattern-04"
       patternUnits="userSpaceOnUse"
       width="6"
       height="6"
       x="0"
       y="0" />
    <pattern
       id="EMFhbasepattern-014"
       patternUnits="userSpaceOnUse"
       width="6"
       height="6"
       x="0"
       y="0" />
    <pattern
       id="EMFhbasepattern-27"
       patternUnits="userSpaceOnUse"
       width="6"
       height="6"
       x="0"
       y="0" />
    <pattern
       id="EMFhbasepattern-09"
       patternUnits="userSpaceOnUse"
       width="6"
       height="6"
       x="0"
       y="0" />
    <pattern
       id="EMFhbasepattern-5"
       patternUnits="userSpaceOnUse"
       width="6"
       height="6"
       x="0"
       y="0" />
    <pattern
       id="EMFhbasepattern-018"
       patternUnits="userSpaceOnUse"
       width="6"
       height="6"
       x="0"
       y="0" />
  </defs>
  <sodipodi:namedview
     id="base"
     pagecolor="#ffffff"
     bordercolor="#666666"
     borderopacity="1.0"
     inkscape:pageopacity="0.0"
     inkscape:pageshadow="2"
     inkscape:zoom="9.1757813"
     inkscape:cx="42.612175"
     inkscape:cy="42.666667"
     inkscape:document-units="pt"
     inkscape:current-layer="svg831"
     showgrid="false"
     units="pt"
     inkscape:window-width="1920"
     inkscape:window-height="1001"
     inkscape:window-x="-9"
     inkscape:window-y="41"
     inkscape:window-maximized="1"
     inkscape:pagecheckerboard="true"
     inkscape:showpageshadow="false"
     inkscape:object-paths="true"
     inkscape:snap-intersection-paths="true"
     inkscape:snap-smooth-nodes="true"
     inkscape:snap-midpoints="true"
     showguides="true"
     inkscape:snap-bbox="true"
     inkscape:bbox-nodes="true"
     inkscape:snap-nodes="false"
     inkscape:snap-global="true">
    <inkscape:grid
       type="xygrid"
       id="grid1378" />
    <sodipodi:guide
       position="0.97013831,21.607643"
       orientation="78.000048,0"
       id="guide1380"
       inkscape:locked="false" />
    <sodipodi:guide
       position="0.97013831,0.97013129"
       orientation="0,78.000005"
       id="guide1382"
       inkscape:locked="false" />
    <sodipodi:guide
       position="21.607639,0.97013129"
       orientation="-78.000048,0"
       id="guide1384"
       inkscape:locked="false" />
    <sodipodi:guide
       position="21.607639,21.607643"
       orientation="0,-78.000005"
       id="guide1386"
       inkscape:locked="false" />
  </sodipodi:namedview>
  <metadata
     id="metadata828">
    <rdf:RDF>
      <cc:Work
         rdf:about="">
        <dc:format>image/svg+xml</dc:format>
        <dc:type
           rdf:resource="http://purl.org/dc/dcmitype/StillImage" />
      </cc:Work>
    </rdf:RDF>
  </metadata>
  <g
     inkscape:label="Icon"
     inkscape:groupmode="layer"
     id="layer1"
     transform="translate(0,-274.42223)" />
  <g
     id="g77059"
     style="display:inline;stroke-width:0.801255"
     transform="matrix(1.2480418,0,0,1.2480418,0.63956204,-388.43853)">
    <path
       style="color:#000000;fill:#1f5b31;stroke-width:0.801255;stroke-linecap:round;stroke-linejoin:round;-inkscape-stroke:none"
       d="m 5.9667969,312.12305 a 0.26460996,0.26460996 0 0 0 -0.3300782,0.0352 l -0.7949218,0.79492 a 0.26460996,0.26460996 0 0 0 0,0.37305 c 0.7521745,0.75218 0.7167968,1.13594 0.7167968,1.92969 a 0.26460996,0.26460996 0 0 0 0.1660157,0.24609 l 1.3789062,0.55664 a 0.26460996,0.26460996 0 0 0 0.3632813,-0.26953 c -0.054749,-0.64186 -0.1021097,-1.33199 -0.296875,-1.98047 -0.1947653,-0.64848 -0.5512103,-1.26217 -1.203125,-1.68554 z"
       id="path532371" />
    <path
       id="path49548"
       style="color:#000000;fill:#1b522c;fill-opacity:1;stroke-width:0.801255;stroke-linecap:round;stroke-linejoin:round;-inkscape-stroke:none"
       d="m 5.6368653,312.15823 -0.7953004,0.79479 c -0.1025955,0.10321 -0.1025955,0.26989 0,0.3731 0.7521744,0.75218 0.717269,1.13585 0.717269,1.9296 -4.045e-4,0.10838 0.065325,0.20605 0.1658813,0.24649 l 1.3787271,0.55656 c 0.1117768,0.0455 0.2401616,0.01 0.3121258,-0.0873 l -1.1616862,-0.46922 c -0.100556,-0.0404 -0.1662858,-0.13811 -0.1658813,-0.24649 0,-0.79375 0.034905,-1.17742 -0.7172691,-1.9296 -0.1025955,-0.10321 -0.1025955,-0.26989 0,-0.3731 l 0.7343223,-0.73381 c -0.044635,-0.033 -0.09074,-0.0651 -0.138493,-0.0961 -0.148277,-0.0701 -0.1950898,-0.0215 -0.3296955,0.0351 z"
       sodipodi:nodetypes="cccccccccccccc" />
    <path
       style="color:#000000;fill:#349951;stroke-width:0.801255;stroke-linecap:round;stroke-linejoin:round;-inkscape-stroke:none"
       d="m 1.621346,325.49654 c 0.864672,1.77924 2.3524149,2.98986 4.0700662,2.98986 h 1.1894532 c 1.1464566,0 2.1985542,-0.54563 3.0195312,-1.43164 1.4668214,-1.54973 2.1171894,-4.57177 1.5996094,-7.23047 -0.258949,-1.33017 -0.818799,-2.57477 -1.7597656,-3.47656 -0.9409666,-0.90179 -2.2639888,-1.44486 -3.96875,-1.38086 -0.00326,-6e-5 -0.00651,-6e-5 -0.00977,0 l -1.7e-6,-7e-5 c -0.8144363,0.0628 -1.5936974,0.28605 -2.1972656,0.6914 -0.3011723,-0.0779 -0.6151163,-0.12875 -0.9003903,-0.1739 -0.1406709,-0.0131 -0.290923,-0.0477 -0.4589844,0.10743 -0.1366004,0.15758 -0.1177437,0.30379 -0.089844,0.48047 0.088735,0.24258 0.1923139,0.44899 0.2793012,0.69143 -0.4113598,0.51842 -0.749323,1.13506 -1.0117188,1.81445 -0.3004181,0.0166 -0.61990627,0.0108 -0.90039012,0.086 -0.24938388,0.24778 -0.22574374,0.42208 -0.0566406,0.66406 0.1880777,0.20382 0.38762859,0.38863 0.5605469,0.58205 -0.11856905,0.58287 -0.18945313,1.19357 -0.18945313,1.82812 0,0.83597 0.10913631,1.63691 0.31054695,2.37695 -0.081968,0.21525 -0.19390522,0.43073 -0.27929605,0.62108 -0.0885031,0.33225 -0.005502,0.50365 0.29296865,0.6582 0.1674034,0.044 0.3651116,0.0764 0.5002438,0.102 z"
       id="path532563"
       sodipodi:nodetypes="csscssccccccccccccsccccc" />
    <path
       id="path40914"
       style="color:#000000;fill:#26783f;fill-opacity:1;stroke-width:0.801255;stroke-linecap:round;stroke-linejoin:round;-inkscape-stroke:none"
       d="m 0.82837322,324.73611 c -0.038716,0.11125 -0.07451,0.24674 -0.013953,0.40411 0.067155,0.17452 0.20753568,0.2229 0.30644118,0.25424 0.067166,0.0213 0.1313792,0.0339 0.1937867,0.045 0.053903,-0.26924 0.243482,-0.60192 0.3219434,-0.79532 -0.2014106,-0.74004 -0.3105753,-1.54063 -0.3105753,-2.3766 0,-0.63455 0.071083,-1.24544 0.1896525,-1.82831 -0.1686115,-0.20323 -0.3955155,-0.40876 -0.56068938,-0.58184 -0.041462,-0.0489 -0.080651,-0.0989 -0.1131713,-0.16226 -0.03256,-0.0634 -0.07116,-0.15464 -0.03514,-0.27957 0.0814285,-0.19075 0.21433258,-0.24459 0.39429108,-0.27341 0.2435193,-0.0207 0.473692,-0.0211 0.7110675,-0.035 0.2623961,-0.67939 0.600465,-1.29594 1.0118247,-1.81436 -0.073575,-0.23247 -0.1930426,-0.47182 -0.2795709,-0.69141 -0.068205,-0.19292 -0.02952,-0.33499 0.089917,-0.48059 0.1680615,-0.15513 0.318216,-0.12059 0.4588868,-0.10749 0.2851264,0.0376 0.5387532,0.097 0.8164877,0.1468 0.4049222,-0.46651 1.6832382,-0.61338 2.2815141,-0.66413 0.00327,-6e-5 0.00655,-6e-5 0.00982,0 1.5897527,-0.0597 2.8468234,0.40878 3.772379,1.20355 -0.1053025,-0.12214 -0.2158783,-0.23987 -0.3327955,-0.35192 -0.8821562,-0.84543 -2.1005632,-1.37573 -3.6540406,-1.38596 l 1.6e-6,5e-5 c -0.9579077,0 -1.8825141,0.27893 -2.5218116,0.69643 -0.3030604,-0.0784 -0.6313617,-0.13084 -0.9007202,-0.174 -0.3129242,-0.0619 -0.560692,0.0883 -0.5777424,0.37724 0.020042,0.3196 0.203128,0.64763 0.30851,0.90224 -0.4113596,0.51842 -0.7494286,1.13496 -1.0118247,1.81436 -0.2326164,0.0184 -0.50717885,0.009 -0.71106748,0.035 -0.30994649,0.0378 -0.37417341,0.21456 -0.3942911,0.2734 -0.0521308,0.21874 0.0689476,0.33934 0.1483113,0.44184 0.20221519,0.21259 0.38938321,0.39594 0.5606894,0.58183 -0.1185693,0.58287 -0.1896525,1.19377 -0.1896525,1.82832 0,0.83597 0.1091647,1.63656 0.31057528,2.37659 -0.081751,0.21531 -0.19374379,0.43074 -0.27905328,0.62117 z"
       sodipodi:nodetypes="cscccsccccccccccccccscccccccccccscc" />
    <path
       id="path30837"
       style="color:#000000;fill:#26783f;stroke-width:3.02837;stroke-linecap:round;stroke-linejoin:round;-inkscape-stroke:none"
       d="m 13.25,142.75781 v 3.02539 c -0.0022,0.55534 0.448565,1.00608 1.003906,1.00391 0.553052,-0.001 1.00021,-0.45086 0.998047,-1.00391 v -2.71484 l 2.759766,0.68555 c 0.533701,0.13316 1.074743,-0.18973 1.210937,-0.72266 0.132672,-0.5361 -0.194367,-1.07826 -0.730468,-1.21094 l -3.056641,-0.76758 c -1.306382,-0.30861 -2.150491,0.59517 -2.185547,1.70508 z m -0.685547,9.11719 -2.7031249,1.61523 c -0.9598133,0.57589 -1.1293811,1.96244 -0.3378906,2.75391 l 2.1406245,2.14063 c 0.39073,0.39173 1.025286,0.39173 1.416016,0 0.393035,-0.39095 0.393035,-1.02702 0,-1.41797 l -1.917969,-1.91797 2.435547,-1.46289 c 0.473094,-0.28524 0.625268,-0.90006 0.339844,-1.37305 -0.342397,-0.43476 -0.804005,-0.59779 -1.373047,-0.33789 z m -1.558594,11.09375 c -0.552288,0.002 -0.998256,0.45162 -0.996093,1.00391 V 167 c -3e-6,1.11931 1.099665,1.97656 2.185546,1.70508 l 3.056641,-0.76758 c 0.536102,-0.13268 0.863141,-0.67484 0.730469,-1.21094 -0.136086,-0.53678 -0.682487,-0.86077 -1.21875,-0.72265 l -2.753906,0.68554 v -2.71679 c 0.0022,-0.55534 -0.448565,-1.00608 -1.003907,-1.00391 z m 12.992188,6.26758 c -0.549236,0.002 -0.99395,0.44685 -0.996094,0.99609 v 2.72461 l -2.761719,-0.69336 c -0.535458,-0.13143 -1.076273,0.19533 -1.208984,0.73047 -0.133157,0.5337 0.189722,1.07474 0.722656,1.21094 l 3.064453,0.76758 c 1.085882,0.27137 2.183596,-0.58581 2.183594,-1.70508 v -3.03516 c -0.0022,-0.55228 -0.451621,-0.99825 -1.003906,-0.99609 z"
       transform="matrix(0.26458334,0,0,0.26458334,0,280.06666)"
       sodipodi:nodetypes="ccccccccccccccccccccscsccccccssccccccscs" />
    <path
       id="path42462"
       style="fill:#26783f;fill-opacity:1;stroke-width:3.02837;stroke-linecap:round;stroke-linejoin:round"
       d="m 22.779297,131.88867 c -2.958737,4.86035 -4.656258,10.97623 -4.65625,17.60742 0,7.41612 2.120717,14.19714 5.757812,19.28907 3.375337,4.72544 8.227088,8.06971 13.785157,8.53515 5.367935,-5.93282 7.72547,-17.15793 5.798828,-27.05469 -0.978705,-5.02741 -3.093982,-9.73228 -6.650391,-13.14062 -4.590841,-3.42628 -9.555764,-5.1555 -14.035156,-5.23633 z"
       transform="matrix(0.26458334,0,0,0.26458334,0,280.06666)"
       sodipodi:nodetypes="csscscc" />
    <path
       style="color:#000000;fill:#1f5b31;fill-opacity:1;stroke-width:0.801255;stroke-linecap:round;stroke-linejoin:round;-inkscape-stroke:none"
       d="m 10.318359,312.875 c -1.3786905,0 -2.6133814,0.7849 -3.4882809,2.00977 -0.8748995,1.22486 -1.406252,2.89522 -1.40625,4.73632 0,1.84111 0.5313506,3.51343 1.40625,4.73828 0.8748995,1.22486 2.1095921,2.00977 3.4882809,2.00977 0.194465,0 0.40019,-0.0403 0.601563,-0.10547 0.294945,0.0536 0.630442,0.10547 0.986328,0.10547 1.37869,0 2.615334,-0.78491 3.490234,-2.00977 0.8749,-1.22485 1.404297,-2.89717 1.404297,-4.73828 2e-6,-1.8411 -0.529397,-3.51146 -1.404297,-4.73632 -0.8749,-1.22487 -2.111543,-2.00977 -3.490234,-2.00977 -0.181305,0 -0.386229,0.027 -0.621094,0.082 -0.345157,-0.0405 -0.646784,-0.082 -0.966797,-0.082 z"
       id="path532772" />
    <path
       id="path51698"
       style="fill:#1b522c;fill-opacity:1;stroke:none;stroke-width:1.60251;stroke-linecap:round;stroke-linejoin:round;stop-color:#000000"
       d="m 45,124 c -0.685247,0 -1.459978,0.10267 -2.347656,0.31055 -0.198865,-0.0233 -0.388031,-0.0454 -0.580078,-0.0684 v 50.49609 c 0.90824,0.1456 1.893822,0.26367 2.927734,0.26367 5.210797,0 9.884698,-2.96631 13.191406,-7.5957 3.306709,-4.62935 5.306641,-10.95163 5.306641,-17.91016 7e-6,-6.95848 -1.999932,-13.27099 -5.306641,-17.90039 C 54.884698,126.96627 50.210801,124 45,124 Z"
       transform="matrix(0.26458334,0,0,0.26458334,0,280.06666)" />
    <path
       style="color:#000000;fill:#e8cf76;fill-opacity:1;stroke-width:0.801255;stroke-linecap:round;stroke-linejoin:round;-inkscape-stroke:none"
       d="m 10.318359,313.4043 c 0.280188,0 0.567739,0.0379 0.929688,0.0801 a 0.26460996,0.26460996 0 0 0 0.09766,-0.006 c 0.232625,-0.0616 0.386998,-0.0742 0.560547,-0.0742 1.178503,0 2.257688,0.66584 3.058594,1.78711 0.800905,1.12126 1.306642,2.69072 1.30664,4.42968 0,1.73897 -0.505735,3.30843 -1.30664,4.42969 -0.800905,1.12127 -1.880092,1.78906 -3.058594,1.78906 -0.312647,0 -0.628143,-0.0484 -0.917969,-0.10156 a 0.26460996,0.26460996 0 0 0 -0.154297,0.0195 c -0.134042,0.06 -0.313679,0.082 -0.515625,0.082 -1.1785009,0 -2.2576888,-0.66779 -3.0585934,-1.78906 -0.8009046,-1.12126 -1.3066406,-2.69072 -1.3066406,-4.42969 -1.9e-6,-1.73896 0.5057358,-3.30842 1.3066406,-4.42968 0.8009048,-1.12127 1.8800912,-1.78711 3.0585934,-1.78711 z"
       id="path532778" />
    <path
       id="path53460"
       style="fill:#dbb74a;fill-opacity:1;stroke:none;stroke-width:1.60251;stroke-linecap:round;stroke-linejoin:round;stop-color:#000000"
       d="m 45,126 c -0.655933,0 -1.239928,0.0484 -2.119141,0.28125 -0.275647,0.0696 -0.554379,-0.0142 -0.808593,-0.0293 v 46.45899 C 43.014738,172.87094 44.009113,173 45,173 c 4.454181,0 8.533504,-2.52385 11.560547,-6.76172 3.027042,-4.23783 4.9375,-10.1697 4.9375,-16.74219 7e-6,-6.57244 -1.910458,-12.50435 -4.9375,-16.74218 C 53.533501,128.51604 49.454185,126 45,126 Z"
       transform="matrix(0.26458334,0,0,0.26458334,0,280.06666)"
       sodipodi:nodetypes="scccsssss" />
    <path
       id="path31687"
       style="color:#000000;fill:#cba158;stroke-width:3.02837;stroke-linecap:round;stroke-linejoin:round;-inkscape-stroke:none"
       d="m 40.998047,126.13086 v 28.86523 c -0.0022,0.55611 0.449755,1.00717 1.005859,1.00391 0.552288,-0.002 0.998257,-0.45162 0.996094,-1.00391 v -28.74414 c -0.650834,0.13312 -1.364403,-0.13935 -2.001953,-0.12109 z"
       transform="matrix(0.26458334,0,0,0.26458334,0,280.06666)"
       sodipodi:nodetypes="cccccc" />
    <path
       id="path535307"
       style="color:#000000;fill:#3a4d5c;fill-opacity:1;stroke-width:1.60251;stroke-linecap:round;stroke-linejoin:round;-inkscape-stroke:none"
       d="m 49.498047,132 c -1.763128,0.004 -3.253906,0.56445 -3.253906,0.56445 0,0 0.631107,3.82886 3.261718,5.34766 2.630608,1.51876 6.263672,0.15234 6.263672,0.15234 0,0 -0.633064,-3.82885 -3.263672,-5.34765 -0.945376,-0.54581 -2.01874,-0.71898 -3.007812,-0.7168 z m 2,10.5 c -1.763128,0.004 -3.253906,0.56445 -3.253906,0.56445 0,0 0.631107,3.82886 3.261718,5.34766 2.630608,1.51876 6.263672,0.15234 6.263672,0.15234 0,0 -0.633064,-3.82885 -3.263672,-5.34765 -0.945376,-0.54581 -2.01874,-0.71898 -3.007812,-0.7168 z m -2,10.5 c -1.763128,0.004 -3.253906,0.56445 -3.253906,0.56445 0,0 0.631107,3.82886 3.261718,5.34766 2.630608,1.51876 6.263672,0.15234 6.263672,0.15234 0,0 -0.633064,-3.82885 -3.263672,-5.34765 -0.945376,-0.54581 -2.01874,-0.71898 -3.007812,-0.7168 z M 42,158.81445 c 0,0 -2.999985,2.46243 -3,5.5 1.5e-5,3.03757 3,5.5 3,5.5 0,0 2.999985,-2.46243 3,-5.5 -1.5e-5,-3.03757 -3,-5.5 -3,-5.5 z"
       transform="matrix(0.26458334,0,0,0.26458334,0,280.06666)" />
    <path
       style="color:#000000;fill:#3a4d5c;fill-opacity:1;stroke-width:0.423998;stroke-linecap:round;stroke-linejoin:round;-inkscape-stroke:none"
       d="m 9.464098,317.91924 c 0,0 -0.167357,1.01316 -0.863373,1.41501 -0.696015,0.40184 -1.657122,0.0402 -1.657122,0.0402 0,0 0.167357,-1.01316 0.863372,-1.41501 0.696016,-0.40184 1.657123,-0.0402 1.657123,-0.0402 z"
       id="path535283" />
    <path
       style="color:#000000;fill:#3a4d5c;fill-opacity:1;stroke-width:0.423998;stroke-linecap:round;stroke-linejoin:round;-inkscape-stroke:none"
       d="m 9.993265,315.14111 c 0,0 -0.167357,1.01316 -0.863373,1.41501 -0.696015,0.40184 -1.657122,0.0402 -1.657122,0.0402 0,0 0.167357,-1.01316 0.863372,-1.41501 0.696016,-0.40184 1.657123,-0.0402 1.657123,-0.0402 z"
       id="path535277" />
    <path
       style="color:#000000;fill:#3a4d5c;fill-opacity:1;stroke-width:0.423998;stroke-linecap:round;stroke-linejoin:round;-inkscape-stroke:none"
       d="m 9.993265,320.69737 c 0,0 -0.167357,1.01316 -0.863373,1.41501 -0.696015,0.40184 -1.657122,0.0402 -1.657122,0.0402 0,0 0.167357,-1.01316 0.863372,-1.41501 0.696016,-0.40184 1.657123,-0.0402 1.657123,-0.0402 z"
       id="path535289" />
    <path
       id="path68795"
       style="fill:#2f414d;fill-opacity:1;stroke:none;stroke-width:1.60251;stroke-linecap:round;stroke-linejoin:round;stop-color:#000000"
       d="m 46.244141,132.56445 c 0,0 0.631107,3.82886 3.261718,5.34766 2.630608,1.51876 6.263672,0.15234 6.263672,0.15234 0,0 -0.633064,-3.82885 -3.263672,-5.34765 -2.078872,-1.0098 -4.068158,-0.79006 -6.261718,-0.15235 z m 2,10.5 c 0,0 0.631107,3.82886 3.261718,5.34766 2.630608,1.51876 6.263672,0.15234 6.263672,0.15234 0,0 -0.633064,-3.82885 -3.263672,-5.34765 -2.078872,-1.0098 -4.068158,-0.79006 -6.261718,-0.15235 z m -2,10.5 c 0,0 0.631107,3.82886 3.261718,5.34766 2.630608,1.51876 6.263672,0.15234 6.263672,0.15234 0,0 -0.633064,-3.82885 -3.263672,-5.34765 -2.078872,-1.0098 -4.068158,-0.79006 -6.261718,-0.15235 z m -4.171875,5.31641 v 10.86719 c 0.213579,-0.17964 2.92772,-2.51299 2.927734,-5.4336 -1.4e-5,-2.92061 -2.714155,-5.25395 -2.927734,-5.43359 z"
       transform="matrix(0.26458334,0,0,0.26458334,0,280.06666)"
       sodipodi:nodetypes="cccccccccccscccccsc" />
  </g>
</svg>
